<svg version="1.1" id="Layer_1" xmlns="http://www.w3.org/2000/svg" xmlns:xlink="http://www.w3.org/1999/xlink" x="0px" y="0px"
	 width="100%" viewBox="0 0 3198 3325" enable-background="new 0 0 3198 3325" xml:space="preserve">
<path fill="none" opacity="1.000000" stroke="none" 
	d="
M1224.000000,1.999999 
	C1882.587524,2.000000 2541.175049,2.000000 3199.881348,2.000000 
	C3199.881348,1110.454468 3199.881348,2218.908936 3199.881348,3328.000000 
	C2712.604980,3328.000000 2225.209717,3328.000000 1736.190918,3327.375732 
	C1738.125732,3325.485840 1741.616821,3323.968018 1745.253906,3322.996582 
	C1767.389404,3317.084473 1789.507568,3311.095703 1811.730713,3305.527588 
	C1830.831543,3300.742188 1850.137939,3298.524902 1869.915771,3301.230957 
	C1896.592163,3304.880859 1921.498047,3299.749756 1944.089600,3284.631104 
	C1969.358154,3267.720947 1996.686646,3255.027344 2025.166992,3244.538818 
	C2049.265869,3235.664307 2073.096191,3225.716553 2091.856689,3207.559326 
	C2104.703857,3195.124756 2116.506836,3181.494141 2127.822021,3167.619629 
	C2148.179932,3142.657715 2167.637695,3116.963379 2187.841309,3091.872803 
	C2197.418945,3079.978027 2208.121826,3068.993652 2217.816650,3057.187500 
	C2227.687988,3045.166260 2234.405518,3031.489502 2235.850830,3015.746094 
	C2236.728760,3006.181396 2237.589111,2996.566650 2237.562500,2986.976807 
	C2237.493652,2962.341553 2244.395752,2939.842041 2257.247559,2919.036865 
	C2264.392578,2907.469727 2273.667969,2898.167969 2286.360352,2892.672607 
	C2294.287354,2889.239990 2302.162109,2885.685059 2310.116943,2882.318848 
	C2327.092773,2875.135254 2339.221191,2863.129150 2347.437744,2846.615479 
	C2360.395508,2820.572266 2360.522705,2792.731201 2359.474121,2764.774902 
	C2358.679199,2743.583984 2356.971191,2722.427246 2355.658936,2701.255859 
	C2353.977295,2674.128418 2364.389648,2651.620850 2383.795654,2633.692383 
	C2404.769531,2614.315430 2426.724121,2595.973877 2448.659180,2577.669922 
	C2483.172363,2548.869629 2519.184570,2522.208984 2558.992432,2500.909424 
	C2575.372803,2492.145020 2591.437500,2482.622803 2606.852539,2472.264404 
	C2628.658203,2457.612061 2644.646973,2437.977539 2652.786133,2412.557617 
	C2658.093262,2395.982666 2660.308105,2378.921387 2660.281982,2361.595703 
	C2660.242432,2335.290771 2659.767090,2308.986084 2659.749512,2282.681396 
	C2659.745361,2276.417480 2660.513916,2270.106201 2661.459717,2263.898193 
	C2663.554932,2250.143311 2666.777100,2236.514160 2668.073486,2222.696045 
	C2669.531006,2207.160400 2665.316650,2192.911377 2652.987549,2182.262451 
	C2645.700195,2175.968262 2638.021240,2170.122070 2630.443359,2164.169922 
	C2616.723389,2153.393311 2609.317139,2139.631348 2610.350342,2121.891846 
	C2610.850342,2113.305664 2611.556396,2104.731689 2612.703125,2095.513916 
	C2614.487061,2080.472656 2614.308594,2066.322754 2606.560303,2053.339600 
	C2601.969971,2045.647583 2597.734131,2037.742065 2593.056641,2030.105225 
	C2585.892822,2018.408447 2581.744141,2005.808960 2583.901611,1992.181885 
	C2585.442871,1982.448608 2587.926025,1972.626831 2591.646240,1963.521851 
	C2601.661133,1939.010498 2616.770508,1917.345093 2633.540283,1897.181396 
	C2651.143555,1876.015381 2670.345215,1856.157349 2689.211426,1836.068481 
	C2708.820557,1815.188477 2727.627441,1793.818726 2740.666016,1767.967529 
	C2752.037598,1745.420776 2768.337158,1726.732666 2786.594238,1709.451904 
	C2800.789795,1696.016113 2814.453613,1681.975952 2827.758301,1667.651367 
	C2848.087402,1645.763916 2867.395996,1622.910278 2888.132812,1601.427002 
	C2900.020264,1589.111328 2912.792969,1577.489502 2928.015137,1568.811768 
	C2933.790771,1565.519287 2938.791260,1559.846802 2942.508301,1554.184692 
	C2949.250244,1543.914795 2953.984131,1532.526001 2956.916748,1519.821289 
	C2963.074219,1495.386230 2972.007568,1472.971558 2988.923584,1454.645142 
	C3006.441650,1435.666504 3015.878906,1413.066895 3020.397217,1388.055420 
	C3023.864258,1368.863037 3030.882080,1351.111450 3041.378906,1334.654663 
	C3051.207275,1319.246338 3061.138428,1303.880249 3070.293945,1288.072510 
	C3080.923828,1269.719116 3087.373047,1250.130981 3086.530029,1228.388672 
	C3086.108154,1217.507080 3087.339355,1206.533569 3088.266602,1195.639404 
	C3088.713135,1190.389038 3089.908936,1185.153687 3091.250000,1180.038452 
	C3094.251221,1168.591675 3101.720947,1160.437622 3111.561035,1154.576904 
	C3108.061279,1146.619507 3097.421387,1134.231812 3090.972900,1131.760742 
	C3063.916260,1121.392578 3061.548584,1120.078247 3036.612549,1136.250732 
	C3030.203369,1140.407349 3024.112305,1145.050781 3017.784424,1149.337158 
	C3007.352783,1156.403320 2995.065186,1157.945068 2983.385986,1156.948975 
	C2967.219971,1155.570190 2951.534424,1155.990234 2936.178467,1160.842041 
	C2920.677490,1165.739502 2905.395020,1171.342651 2890.084473,1176.825195 
	C2876.360596,1181.739746 2862.745605,1186.957886 2849.050537,1191.954102 
	C2837.230957,1196.266235 2825.587158,1201.308350 2813.457520,1204.451538 
	C2801.885986,1207.449707 2790.265137,1205.591675 2780.277588,1198.215332 
	C2775.856445,1194.950073 2772.115234,1190.551392 2774.108398,1184.654663 
	C2776.667969,1177.082764 2774.231934,1170.408203 2772.093750,1163.452148 
	C2766.440918,1145.062012 2753.350098,1132.474854 2739.221924,1120.593140 
	C2727.796631,1110.984619 2716.454834,1101.272217 2705.255615,1091.402222 
	C2698.275635,1085.250366 2691.631836,1078.717163 2684.833252,1072.359131 
	C2667.263184,1055.927002 2646.403076,1043.998779 2626.530762,1029.531494 
	C2611.492676,1016.842957 2601.206543,1001.362610 2591.967529,985.100159 
	C2579.305908,962.813416 2563.549805,943.400513 2541.554932,929.578613 
	C2537.913330,927.290100 2534.621094,924.430359 2531.244141,921.738464 
	C2519.301270,912.217590 2510.040283,900.815247 2505.147217,886.033081 
	C2502.762451,878.827942 2499.386719,871.950806 2496.378174,864.382385 
	C2492.903564,859.388245 2490.091797,854.282837 2485.986328,850.632324 
	C2479.089355,844.499573 2471.640381,838.882141 2463.933350,833.790222 
	C2451.873535,825.822632 2446.129395,815.330627 2446.216309,800.603760 
	C2446.398438,769.789795 2434.357178,743.381470 2414.606934,719.422913 
	C2412.852783,717.209900 2411.373047,715.607361 2409.755615,713.343018 
	C2397.407959,697.783081 2385.346924,682.759705 2372.941650,668.025757 
	C2362.622803,655.769836 2357.623779,642.040344 2358.291992,625.877991 
	C2359.303467,601.395569 2348.854492,582.276794 2329.462402,567.697632 
	C2323.619141,563.304504 2317.844971,558.791321 2312.322266,554.006592 
	C2304.809082,547.497681 2296.976562,541.211487 2290.327393,533.880554 
	C2274.242920,516.146423 2265.037109,494.180817 2254.584473,473.044708 
	C2250.966553,465.729309 2247.917969,458.132477 2244.382324,450.152252 
	C2247.996338,448.099457 2250.792236,446.382904 2253.701172,444.885773 
	C2259.615723,441.841736 2265.535156,438.796661 2271.552979,435.965881 
	C2285.735596,429.294495 2292.399902,417.935059 2292.291504,402.542328 
	C2292.251953,396.927704 2291.563232,391.292633 2290.825684,385.712494 
	C2288.138916,365.383514 2280.059570,346.780029 2272.417969,327.995575 
	C2263.026123,304.907806 2246.585693,289.113922 2222.937012,282.272156 
	C2195.859375,274.438324 2168.302979,268.242615 2140.900879,261.553894 
	C2125.709473,257.845734 2111.250000,260.880707 2097.354980,267.392761 
	C2093.440918,269.227142 2089.648438,271.320435 2085.735352,273.156921 
	C2066.925293,281.984314 2047.589478,289.564026 2026.381470,287.293091 
	C2011.930664,285.745697 1997.540649,282.818268 1983.403320,279.362762 
	C1965.678345,275.030426 1948.239868,269.526093 1929.863281,264.300476 
	C1917.791382,260.472015 1906.533691,256.870605 1894.936646,252.786377 
	C1883.791260,245.816742 1872.627808,240.275818 1860.929077,235.348679 
	C1850.689453,231.036102 1840.829834,229.260193 1830.122070,229.557617 
	C1820.824707,229.815826 1811.519897,230.095871 1802.223877,229.966064 
	C1798.501221,229.914078 1793.775391,230.716675 1792.490723,225.300125 
	C1790.696533,217.734528 1784.777100,211.752975 1784.397095,203.624435 
	C1784.174438,198.862885 1780.841675,197.185028 1776.621826,196.017639 
	C1753.601929,189.649368 1731.182861,191.492035 1709.834473,201.833359 
	C1690.516357,211.191223 1674.932983,227.846100 1678.096313,255.189529 
	C1678.813965,261.392639 1678.377441,267.850403 1677.595581,274.081024 
	C1675.875122,287.791840 1665.904907,299.034058 1653.239868,301.005676 
	C1647.457275,301.905853 1641.250122,301.582031 1635.457642,300.557892 
	C1627.023682,299.066711 1618.790161,296.441711 1610.072632,293.673706 
	C1605.424438,290.317963 1601.174683,287.588684 1596.515869,284.469116 
	C1578.801270,276.579529 1561.228027,274.134644 1543.060425,280.997650 
	C1536.437744,283.499481 1530.657104,280.143921 1525.102295,277.403168 
	C1520.533813,275.148956 1522.193481,270.234894 1522.480835,266.542511 
	C1523.228882,256.932190 1513.316040,252.593140 1511.931152,244.130875 
	C1511.831177,243.520401 1510.311157,243.090485 1509.406982,242.673065 
	C1506.698486,241.422867 1503.968018,240.220627 1500.576172,238.560913 
	C1480.836670,228.003876 1461.615845,217.744888 1440.446411,213.196838 
	C1404.417603,205.456497 1370.021973,191.382523 1333.386597,186.188522 
	C1323.778687,184.826355 1317.588867,178.156723 1311.595703,171.591522 
	C1309.584473,169.388260 1308.730103,165.607727 1308.444092,162.448761 
	C1307.590088,153.020996 1308.786133,143.791260 1313.871338,135.557602 
	C1318.926270,127.372597 1317.612427,119.874603 1312.169434,112.585266 
	C1310.781616,110.726631 1309.413330,108.844170 1307.900391,107.089722 
	C1301.693237,99.892151 1297.953979,91.390236 1295.277222,82.441391 
	C1294.628174,80.271301 1295.329224,77.515045 1295.963257,75.178520 
	C1297.682007,68.842712 1300.219604,62.679630 1301.353882,56.257534 
	C1301.844849,53.478130 1299.896484,50.138950 1298.646729,47.230038 
	C1297.912720,45.521759 1296.209961,44.258404 1295.222412,42.625866 
	C1287.209106,29.378975 1275.738403,21.094694 1260.466553,18.211409 
	C1258.850464,17.906279 1257.091431,18.034071 1255.598999,17.449568 
	C1245.871948,13.640244 1236.166138,9.769825 1226.554810,5.680851 
	C1225.391724,5.186020 1224.836792,3.261755 1224.000000,1.999999 
z"/>
<path fill="none" opacity="1.000000" stroke="none" 
	d="
M1692.000000,3328.000000 
	C1128.781738,3328.000000 565.563538,3328.000000 2.000000,3328.000000 
	C2.000000,2561.938232 2.000000,1795.876343 2.698653,1028.454346 
	C4.185270,1028.460693 5.245943,1029.739258 5.720289,1031.207153 
	C12.663816,1052.696411 18.353348,1074.455566 22.345228,1096.749512 
	C27.772333,1127.059082 39.741966,1154.617554 61.158543,1177.345703 
	C77.141151,1194.307007 93.434448,1210.975586 109.581100,1227.782471 
	C128.556778,1247.534058 145.944000,1268.447998 156.837662,1293.944214 
	C163.232407,1308.910889 169.703278,1323.865479 175.434860,1339.090820 
	C188.054901,1372.614990 208.501511,1399.435791 239.728180,1417.797974 
	C253.363541,1425.816040 264.309570,1437.018799 273.076721,1450.241577 
	C279.509857,1459.944092 285.627563,1469.866333 292.331451,1479.376465 
	C309.408356,1503.601562 331.371552,1520.933838 361.191345,1526.614868 
	C381.048737,1530.397949 400.304535,1526.601074 419.089996,1520.665039 
	C446.698425,1511.941406 474.532288,1504.652466 503.432648,1501.628052 
	C528.315186,1499.023926 553.189758,1498.034790 577.978149,1501.589966 
	C595.051575,1504.038696 612.040527,1507.302002 628.898926,1510.973877 
	C656.920654,1517.077148 684.170593,1516.269653 710.769104,1504.557251 
	C718.341614,1501.222778 726.313538,1498.766846 734.175232,1496.125000 
	C745.013000,1492.483154 748.434509,1493.934814 751.805969,1504.979492 
	C754.506104,1513.824829 756.111694,1523.008057 758.125427,1532.058472 
	C761.358582,1546.589722 764.201233,1561.217896 767.860291,1575.639893 
	C769.708984,1582.926270 774.068359,1588.155884 783.028320,1586.238770 
	C784.520508,1585.919434 786.322632,1586.544434 787.868591,1587.067261 
	C795.078735,1589.505005 802.572266,1591.396851 809.367981,1594.708130 
	C824.598022,1602.129395 839.394287,1610.434814 854.518738,1618.080322 
	C866.940125,1624.359619 879.726196,1628.656372 893.604919,1622.221313 
	C894.343994,1621.878540 895.523865,1622.486328 896.347656,1623.331299 
	C892.743103,1630.423340 889.134705,1636.758057 885.869690,1643.264893 
	C880.059937,1654.843018 874.197876,1666.407471 868.849792,1678.200928 
	C864.416748,1687.976807 866.070496,1696.935425 874.051086,1704.546509 
	C880.541504,1710.736694 886.467285,1717.572632 893.313110,1723.325195 
	C908.146606,1735.790039 924.557007,1745.394287 944.850098,1743.381348 
	C954.324219,1742.441650 963.680054,1739.646484 972.911499,1737.057373 
	C994.004089,1731.141724 1014.731628,1723.693481 1036.066772,1718.921265 
	C1082.154419,1708.612549 1128.607666,1700.356689 1176.111938,1705.224243 
	C1170.277954,1720.066528 1164.012939,1734.007568 1159.019775,1748.390259 
	C1151.288696,1770.660278 1153.390625,1792.568604 1166.323486,1812.275391 
	C1175.025635,1825.535400 1185.418579,1837.772827 1195.805176,1849.821167 
	C1214.462402,1871.463013 1234.486084,1891.965820 1252.503296,1914.112671 
	C1290.608521,1960.952026 1321.139771,2012.791504 1349.889648,2065.729004 
	C1358.814941,2082.163086 1361.840454,2099.804443 1359.352783,2117.836914 
	C1356.507812,2138.458984 1360.189331,2157.388428 1369.300293,2175.627441 
	C1374.649414,2186.335693 1380.517334,2196.790039 1385.693970,2207.578125 
	C1393.199097,2223.219238 1396.034180,2239.500244 1392.518066,2256.880859 
	C1389.720703,2270.709229 1384.219238,2283.396240 1378.561035,2296.142822 
	C1371.025635,2313.117676 1363.276733,2330.034912 1356.718628,2347.392578 
	C1352.843262,2357.649170 1350.580688,2368.221191 1345.613281,2378.442139 
	C1336.231323,2397.746582 1329.211548,2418.366455 1322.888550,2438.954834 
	C1310.241821,2480.135010 1306.720825,2522.080322 1315.678711,2564.661865 
	C1323.366699,2601.207520 1340.194580,2633.230957 1363.145630,2662.334229 
	C1380.008911,2683.718018 1396.969971,2705.029053 1413.527832,2726.647461 
	C1431.201172,2749.722412 1439.727539,2776.310547 1442.346680,2805.014404 
	C1444.396729,2827.481934 1447.136963,2849.833984 1453.708618,2871.539062 
	C1461.026489,2895.709229 1466.724731,2920.233887 1467.597778,2945.573486 
	C1468.548340,2973.164307 1476.367432,2998.427246 1491.697021,3021.370605 
	C1508.139404,3045.979736 1524.331909,3070.761230 1541.140503,3095.117676 
	C1552.460571,3111.520996 1564.460815,3127.469238 1576.545654,3143.324707 
	C1583.179199,3152.027832 1590.897827,3159.899414 1597.622559,3168.538818 
	C1605.505615,3178.666016 1606.907471,3190.127197 1602.953369,3202.303711 
	C1601.109131,3207.982422 1599.495239,3213.736816 1597.603516,3219.399170 
	C1594.715698,3228.043457 1595.500610,3236.501953 1599.371582,3244.513672 
	C1601.955444,3249.861328 1604.936401,3255.184326 1608.638306,3259.797119 
	C1631.120483,3287.811523 1655.756226,3313.184326 1691.291016,3324.651123 
	C1691.831299,3324.825439 1691.776855,3326.842773 1692.000000,3328.000000 
z"/>
<path fill="#FFE8D6" opacity="1.000000" stroke="none" 
	d="
M896.498535,1622.651611 
	C895.523865,1622.486328 894.343994,1621.878540 893.604919,1622.221313 
	C879.726196,1628.656372 866.940125,1624.359619 854.518738,1618.080322 
	C839.394287,1610.434814 824.598022,1602.129395 809.367981,1594.708130 
	C802.572266,1591.396851 795.078735,1589.505005 787.868591,1587.067261 
	C786.322632,1586.544434 784.520508,1585.919434 783.028320,1586.238770 
	C774.068359,1588.155884 769.708984,1582.926270 767.860291,1575.639893 
	C764.201233,1561.217896 761.358582,1546.589722 758.125427,1532.058472 
	C756.111694,1523.008057 754.506104,1513.824829 751.805969,1504.979492 
	C748.434509,1493.934814 745.013000,1492.483154 734.175232,1496.125000 
	C726.313538,1498.766846 718.341614,1501.222778 710.769104,1504.557251 
	C684.170593,1516.269653 656.920654,1517.077148 628.898926,1510.973877 
	C612.040527,1507.302002 595.051575,1504.038696 577.978149,1501.589966 
	C553.189758,1498.034790 528.315186,1499.023926 503.432648,1501.628052 
	C474.532288,1504.652466 446.698425,1511.941406 419.089996,1520.665039 
	C400.304535,1526.601074 381.048737,1530.397949 361.191345,1526.614868 
	C331.371552,1520.933838 309.408356,1503.601562 292.331451,1479.376465 
	C285.627563,1469.866333 279.509857,1459.944092 273.076721,1450.241577 
	C264.309570,1437.018799 253.363541,1425.816040 239.728180,1417.797974 
	C208.501511,1399.435791 188.054901,1372.614990 175.434860,1339.090820 
	C169.703278,1323.865479 163.232407,1308.910889 156.837662,1293.944214 
	C145.944000,1268.447998 128.556778,1247.534058 109.581100,1227.782471 
	C93.434448,1210.975586 77.141151,1194.307007 61.158543,1177.345703 
	C39.741966,1154.617554 27.772333,1127.059082 22.345228,1096.749512 
	C18.353348,1074.455566 12.663816,1052.696411 5.720289,1031.207153 
	C5.245943,1029.739258 4.185270,1028.460693 2.698653,1027.547119 
	C2.000000,1027.111084 2.000000,1026.222168 2.479191,1024.849609 
	C2.638918,1023.577209 2.319454,1022.788635 1.999995,1022.000000 
	C2.000000,1019.222229 2.000000,1016.444397 2.746566,1012.913330 
	C7.023819,1005.084900 9.833261,997.525269 14.206235,991.016052 
	C36.840504,957.324829 52.677845,920.533264 65.074295,882.096313 
	C71.705956,861.533875 72.819077,840.618774 70.848595,819.146057 
	C69.766678,807.356201 70.498093,795.226562 71.913818,783.430359 
	C73.289650,771.966614 76.757080,760.766785 78.973236,749.386292 
	C80.379829,742.163269 80.425705,734.898865 77.537491,727.859253 
	C74.321426,720.020569 67.356087,716.905090 59.646935,714.049194 
	C60.600475,694.144104 67.012833,676.179626 76.252022,659.121826 
	C88.821640,635.915222 105.325104,615.433411 121.503441,594.743347 
	C140.326218,570.671326 160.300980,547.423096 174.774445,520.244202 
	C186.774261,497.710449 203.809143,479.884674 225.185181,466.070892 
	C245.478561,452.956726 264.058899,437.753723 277.576538,417.552246 
	C291.801941,396.292999 311.421326,383.496613 335.294800,375.645386 
	C345.606689,372.254120 355.813995,367.663910 365.002838,361.914642 
	C386.838470,348.252472 405.610016,330.869995 422.285980,311.210327 
	C435.701080,295.395050 444.964172,277.985382 446.786682,256.789124 
	C448.152283,240.906906 451.414490,225.268845 458.669006,210.773804 
	C474.768494,178.605972 501.361755,157.881119 532.934387,142.584534 
	C551.154480,133.757141 569.790771,125.697342 587.532043,115.997765 
	C606.795837,105.465820 620.271362,89.187576 628.529114,68.697685 
	C630.761536,63.158401 632.877319,57.419727 636.132446,52.489475 
	C639.154968,47.911579 642.924316,42.935577 647.597595,40.513622 
	C659.432800,34.380100 672.013489,34.694126 684.077759,40.539856 
	C689.623596,43.227100 693.634827,47.821957 695.592468,53.767319 
	C697.921631,60.841175 699.914795,68.025650 701.869446,74.547775 
	C708.440186,76.353416 713.763794,78.409111 719.268921,79.197556 
	C728.778320,80.559509 738.392761,81.230316 747.978333,82.001869 
	C753.284668,82.428978 758.223755,81.855278 763.348083,79.277237 
	C768.202393,76.835060 774.139648,76.518188 779.619263,75.354271 
	C784.414368,74.335739 789.264038,73.562889 794.037476,72.456680 
	C799.864197,71.106377 805.684570,69.683388 811.415222,67.980453 
	C815.205688,66.854050 817.968140,70.667931 822.589111,68.556198 
	C835.007385,62.881168 848.513000,60.632133 862.137817,59.185925 
	C866.235168,58.751003 870.670471,57.270561 874.047791,54.952908 
	C900.689697,36.669998 929.893616,24.189398 961.235657,17.036037 
	C969.368530,15.179850 978.593628,9.671040 986.817749,17.896601 
	C987.166443,18.245356 988.120850,18.120750 988.763794,18.023518 
	C1001.670837,16.071648 1013.846130,19.779387 1025.948242,23.210892 
	C1042.248657,27.832882 1057.302368,27.265358 1071.190918,16.087376 
	C1074.533447,13.397326 1080.283325,10.692423 1083.765869,11.764172 
	C1093.031372,14.615677 1102.701050,12.940475 1111.715454,15.670816 
	C1115.681519,16.872099 1119.104980,19.805571 1122.856445,21.798531 
	C1125.019775,22.947729 1127.267822,24.300556 1129.615967,24.660402 
	C1134.125610,25.351496 1138.729980,25.476555 1143.301758,25.695570 
	C1147.849976,25.913454 1152.542725,26.715952 1156.931641,25.926023 
	C1166.952271,24.122473 1183.911255,10.588770 1188.000000,2.000000 
	C1199.376099,2.000000 1210.752075,2.000000 1223.064087,1.999999 
	C1224.836792,3.261755 1225.391724,5.186020 1226.554810,5.680851 
	C1236.166138,9.769825 1245.871948,13.640244 1255.598999,17.449568 
	C1257.091431,18.034071 1258.850464,17.906279 1260.466553,18.211409 
	C1275.738403,21.094694 1287.209106,29.378975 1295.222412,42.625866 
	C1296.209961,44.258404 1297.912720,45.521759 1298.646729,47.230038 
	C1299.896484,50.138950 1301.844849,53.478130 1301.353882,56.257534 
	C1300.219604,62.679630 1297.682007,68.842712 1295.963257,75.178520 
	C1295.329224,77.515045 1294.628174,80.271301 1295.277222,82.441391 
	C1297.953979,91.390236 1301.693237,99.892151 1307.900391,107.089722 
	C1309.413330,108.844170 1310.781616,110.726631 1312.169434,112.585266 
	C1317.612427,119.874603 1318.926270,127.372597 1313.871338,135.557602 
	C1308.786133,143.791260 1307.590088,153.020996 1308.444092,162.448761 
	C1308.730103,165.607727 1309.584473,169.388260 1311.595703,171.591522 
	C1317.588867,178.156723 1323.778687,184.826355 1333.386597,186.188522 
	C1370.021973,191.382523 1404.417603,205.456497 1440.446411,213.196838 
	C1461.615845,217.744888 1480.836670,228.003876 1499.933105,238.854370 
	C1492.709595,245.493073 1486.029175,251.375381 1484.075439,261.588104 
	C1481.711426,273.945374 1478.391357,286.208771 1474.400879,298.150482 
	C1456.687866,351.158142 1435.223145,402.725220 1412.866333,453.891632 
	C1400.632446,481.890564 1387.276855,509.431244 1373.533569,536.728760 
	C1362.431641,558.779907 1346.284790,576.750977 1325.330200,590.240906 
	C1320.048706,593.640991 1315.134155,597.710205 1310.458618,601.924072 
	C1305.846924,606.080383 1303.059692,611.325989 1304.174805,618.478271 
	C1305.461548,620.023560 1306.633789,620.995239 1308.079102,622.601074 
	C1312.520874,625.973389 1316.610840,628.841736 1320.873535,631.424927 
	C1332.898560,638.712036 1342.077393,648.583618 1347.994141,661.332275 
	C1350.933105,667.664612 1353.889282,674.057800 1356.017944,680.686646 
	C1375.974365,742.830444 1389.560425,806.203064 1389.507812,871.767212 
	C1389.480713,905.389343 1388.041138,939.043640 1386.163086,972.623169 
	C1383.237305,1024.935913 1374.787476,1076.500366 1362.970215,1127.526855 
	C1349.440063,1185.949707 1331.859253,1243.244629 1314.605103,1300.621338 
	C1309.051758,1319.088379 1302.599121,1337.309814 1295.901489,1355.400635 
	C1289.248535,1373.371216 1275.620483,1383.472900 1257.234497,1388.237549 
	C1240.615723,1392.544067 1226.187378,1390.959106 1215.204468,1376.272827 
	C1214.413574,1375.215210 1213.345581,1374.365845 1212.415405,1373.411011 
	C1206.054810,1366.882690 1198.367676,1363.801758 1189.207275,1363.442627 
	C1168.441895,1362.629150 1151.244995,1370.543335 1137.615967,1385.472290 
	C1116.060425,1409.083496 1089.959351,1425.681274 1061.109741,1438.744385 
	C1043.838989,1446.564819 1026.891846,1455.154663 1010.112793,1463.993530 
	C986.269531,1476.553711 967.308655,1494.555054 953.892212,1517.971069 
	C945.455078,1532.696655 937.760437,1547.851196 929.869019,1562.884888 
	C920.739441,1580.277466 911.840698,1597.791748 902.632263,1615.141968 
	C901.146362,1617.941650 898.570618,1620.162964 896.498535,1622.651611 
z"/>
<path fill="#FFE8D6" opacity="1.000000" stroke="none" 
	d="
M1692.937256,3328.000000 
	C1691.776855,3326.842773 1691.831299,3324.825439 1691.291016,3324.651123 
	C1655.756226,3313.184326 1631.120483,3287.811523 1608.638306,3259.797119 
	C1604.936401,3255.184326 1601.955444,3249.861328 1599.371582,3244.513672 
	C1595.500610,3236.501953 1594.715698,3228.043457 1597.603516,3219.399170 
	C1599.495239,3213.736816 1601.109131,3207.982422 1602.953369,3202.303711 
	C1606.907471,3190.127197 1605.505615,3178.666016 1597.622559,3168.538818 
	C1590.897827,3159.899414 1583.179199,3152.027832 1576.545654,3143.324707 
	C1564.460815,3127.469238 1552.460571,3111.520996 1541.140503,3095.117676 
	C1524.331909,3070.761230 1508.139404,3045.979736 1491.697021,3021.370605 
	C1476.367432,2998.427246 1468.548340,2973.164307 1467.597778,2945.573486 
	C1466.724731,2920.233887 1461.026489,2895.709229 1453.708618,2871.539062 
	C1447.136963,2849.833984 1444.396729,2827.481934 1442.346680,2805.014404 
	C1439.727539,2776.310547 1431.201172,2749.722412 1413.527832,2726.647461 
	C1396.969971,2705.029053 1380.008911,2683.718018 1363.145630,2662.334229 
	C1340.194580,2633.230957 1323.366699,2601.207520 1315.678711,2564.661865 
	C1306.720825,2522.080322 1310.241821,2480.135010 1322.888550,2438.954834 
	C1329.211548,2418.366455 1336.231323,2397.746582 1345.613281,2378.442139 
	C1350.580688,2368.221191 1352.843262,2357.649170 1356.718628,2347.392578 
	C1363.276733,2330.034912 1371.025635,2313.117676 1378.561035,2296.142822 
	C1384.219238,2283.396240 1389.720703,2270.709229 1392.518066,2256.880859 
	C1396.034180,2239.500244 1393.199097,2223.219238 1385.693970,2207.578125 
	C1380.517334,2196.790039 1374.649414,2186.335693 1369.300293,2175.627441 
	C1360.189331,2157.388428 1356.507812,2138.458984 1359.352783,2117.836914 
	C1361.840454,2099.804443 1358.814941,2082.163086 1349.889648,2065.729004 
	C1321.139771,2012.791504 1290.608521,1960.952026 1252.503296,1914.112671 
	C1234.486084,1891.965820 1214.462402,1871.463013 1195.805176,1849.821167 
	C1185.418579,1837.772827 1175.025635,1825.535400 1166.323486,1812.275391 
	C1153.390625,1792.568604 1151.288696,1770.660278 1159.019775,1748.390259 
	C1164.012939,1734.007568 1170.277954,1720.066528 1176.951538,1705.133667 
	C1192.804688,1705.352539 1207.673828,1707.086182 1222.555420,1707.203369 
	C1243.110107,1707.365112 1262.540283,1711.325317 1281.474731,1719.344482 
	C1307.438110,1730.340698 1334.299927,1738.748657 1361.830078,1745.458618 
	C1361.684326,1749.001709 1361.676025,1751.665283 1361.581421,1754.325562 
	C1360.150879,1794.565918 1395.749512,1827.760376 1433.761475,1826.063232 
	C1444.362305,1825.589844 1454.938599,1824.334106 1465.495361,1823.159790 
	C1485.953979,1820.884033 1506.390381,1818.409546 1526.836426,1816.020508 
	C1547.611084,1813.593262 1568.373901,1811.055664 1589.166748,1808.796143 
	C1598.704956,1807.759644 1608.293335,1806.932129 1617.877075,1806.667480 
	C1623.457275,1806.513428 1629.062622,1807.977783 1634.675049,1808.166016 
	C1655.435425,1808.862183 1675.720337,1804.983276 1695.889404,1800.858154 
	C1718.658447,1796.201294 1741.270264,1790.775146 1764.041748,1786.414307 
	C1765.697510,1790.043091 1767.120483,1793.029297 1768.859741,1795.818359 
	C1771.480347,1800.020630 1774.680420,1803.893188 1777.006836,1808.241699 
	C1786.026001,1825.098511 1799.157104,1838.056396 1814.960815,1848.369995 
	C1835.811646,1861.977539 1858.760742,1870.855347 1882.997803,1875.968628 
	C1899.494263,1879.448730 1916.241211,1882.000244 1932.995728,1883.928101 
	C1950.431152,1885.934204 1968.003662,1887.652710 1985.528076,1887.771851 
	C2012.439941,1887.954956 2039.363770,1886.726074 2066.278076,1885.943237 
	C2071.556641,1885.789795 2076.829590,1885.054810 2082.080078,1884.388794 
	C2094.114014,1882.862183 2105.058105,1883.605713 2113.587402,1894.291504 
	C2119.163818,1901.277710 2126.160400,1907.131226 2132.531494,1913.481812 
	C2144.658447,1925.569580 2154.023193,1939.695679 2162.197998,1954.590820 
	C2176.750488,1981.106812 2183.618652,2009.307007 2182.261230,2039.836548 
	C2180.819824,2072.249512 2169.126953,2099.984619 2147.359863,2123.479492 
	C2121.407959,2151.491211 2087.866699,2163.735596 2050.826416,2167.972900 
	C2033.312256,2169.976318 2021.607666,2179.380859 2014.457397,2195.225830 
	C2007.555054,2210.521240 2020.384399,2222.379150 2032.510376,2221.958008 
	C2049.433350,2221.370605 2066.360596,2220.702637 2083.256592,2219.614014 
	C2096.139160,2218.784180 2108.963379,2217.084961 2121.836914,2216.072021 
	C2133.741699,2215.135254 2145.684082,2214.690186 2157.597168,2213.849365 
	C2165.529541,2213.290039 2173.456299,2212.561523 2181.355957,2211.653076 
	C2196.813232,2209.875244 2212.292236,2208.210205 2227.683838,2205.961914 
	C2246.681396,2203.187012 2265.704346,2200.393555 2284.528809,2196.663574 
	C2317.379150,2190.154785 2347.616943,2176.109863 2378.130127,2162.939453 
	C2403.769775,2151.872314 2429.344238,2140.638184 2455.187256,2130.063477 
	C2477.027588,2121.126465 2499.195312,2112.986328 2521.246826,2104.568848 
	C2555.121338,2091.638184 2555.131836,2091.665771 2586.039062,2092.035156 
	C2586.705322,2092.042969 2587.386719,2091.952881 2588.035645,2092.061279 
	C2596.082764,2093.408447 2604.125244,2094.784180 2612.168945,2096.152100 
	C2611.556396,2104.731689 2610.850342,2113.305664 2610.350342,2121.891846 
	C2609.317139,2139.631348 2616.723389,2153.393311 2630.443359,2164.169922 
	C2638.021240,2170.122070 2645.700195,2175.968262 2652.987549,2182.262451 
	C2665.316650,2192.911377 2669.531006,2207.160400 2668.073486,2222.696045 
	C2666.777100,2236.514160 2663.554932,2250.143311 2661.459717,2263.898193 
	C2660.513916,2270.106201 2659.745361,2276.417480 2659.749512,2282.681396 
	C2659.767090,2308.986084 2660.242432,2335.290771 2660.281982,2361.595703 
	C2660.308105,2378.921387 2658.093262,2395.982666 2652.786133,2412.557617 
	C2644.646973,2437.977539 2628.658203,2457.612061 2606.852539,2472.264404 
	C2591.437500,2482.622803 2575.372803,2492.145020 2558.992432,2500.909424 
	C2519.184570,2522.208984 2483.172363,2548.869629 2448.659180,2577.669922 
	C2426.724121,2595.973877 2404.769531,2614.315430 2383.795654,2633.692383 
	C2364.389648,2651.620850 2353.977295,2674.128418 2355.658936,2701.255859 
	C2356.971191,2722.427246 2358.679199,2743.583984 2359.474121,2764.774902 
	C2360.522705,2792.731201 2360.395508,2820.572266 2347.437744,2846.615479 
	C2339.221191,2863.129150 2327.092773,2875.135254 2310.116943,2882.318848 
	C2302.162109,2885.685059 2294.287354,2889.239990 2286.360352,2892.672607 
	C2273.667969,2898.167969 2264.392578,2907.469727 2257.247559,2919.036865 
	C2244.395752,2939.842041 2237.493652,2962.341553 2237.562500,2986.976807 
	C2237.589111,2996.566650 2236.728760,3006.181396 2235.850830,3015.746094 
	C2234.405518,3031.489502 2227.687988,3045.166260 2217.816650,3057.187500 
	C2208.121826,3068.993652 2197.418945,3079.978027 2187.841309,3091.872803 
	C2167.637695,3116.963379 2148.179932,3142.657715 2127.822021,3167.619629 
	C2116.506836,3181.494141 2104.703857,3195.124756 2091.856689,3207.559326 
	C2073.096191,3225.716553 2049.265869,3235.664307 2025.166992,3244.538818 
	C1996.686646,3255.027344 1969.358154,3267.720947 1944.089600,3284.631104 
	C1921.498047,3299.749756 1896.592163,3304.880859 1869.915771,3301.230957 
	C1850.137939,3298.524902 1830.831543,3300.742188 1811.730713,3305.527588 
	C1789.507568,3311.095703 1767.389404,3317.084473 1745.253906,3322.996582 
	C1741.616821,3323.968018 1738.125732,3325.485840 1735.283691,3327.375732 
	C1721.958130,3328.000000 1707.916138,3328.000000 1692.937256,3328.000000 
z"/>
<path fill="none" opacity="1.000000" stroke="none" 
	d="
M1187.062744,2.000000 
	C1183.911255,10.588770 1166.952271,24.122473 1156.931641,25.926023 
	C1152.542725,26.715952 1147.849976,25.913454 1143.301758,25.695570 
	C1138.729980,25.476555 1134.125610,25.351496 1129.615967,24.660402 
	C1127.267822,24.300556 1125.019775,22.947729 1122.856445,21.798531 
	C1119.104980,19.805571 1115.681519,16.872099 1111.715454,15.670816 
	C1102.701050,12.940475 1093.031372,14.615677 1083.765869,11.764172 
	C1080.283325,10.692423 1074.533447,13.397326 1071.190918,16.087376 
	C1057.302368,27.265358 1042.248657,27.832882 1025.948242,23.210892 
	C1013.846130,19.779387 1001.670837,16.071648 988.763794,18.023518 
	C988.120850,18.120750 987.166443,18.245356 986.817749,17.896601 
	C978.593628,9.671040 969.368530,15.179850 961.235657,17.036037 
	C929.893616,24.189398 900.689697,36.669998 874.047791,54.952908 
	C870.670471,57.270561 866.235168,58.751003 862.137817,59.185925 
	C848.513000,60.632133 835.007385,62.881168 822.589111,68.556198 
	C817.968140,70.667931 815.205688,66.854050 811.415222,67.980453 
	C805.684570,69.683388 799.864197,71.106377 794.037476,72.456680 
	C789.264038,73.562889 784.414368,74.335739 779.619263,75.354271 
	C774.139648,76.518188 768.202393,76.835060 763.348083,79.277237 
	C758.223755,81.855278 753.284668,82.428978 747.978333,82.001869 
	C738.392761,81.230316 728.778320,80.559509 719.268921,79.197556 
	C713.763794,78.409111 708.440186,76.353416 701.869446,74.547775 
	C699.914795,68.025650 697.921631,60.841175 695.592468,53.767319 
	C693.634827,47.821957 689.623596,43.227100 684.077759,40.539856 
	C672.013489,34.694126 659.432800,34.380100 647.597595,40.513622 
	C642.924316,42.935577 639.154968,47.911579 636.132446,52.489475 
	C632.877319,57.419727 630.761536,63.158401 628.529114,68.697685 
	C620.271362,89.187576 606.795837,105.465820 587.532043,115.997765 
	C569.790771,125.697342 551.154480,133.757141 532.934387,142.584534 
	C501.361755,157.881119 474.768494,178.605972 458.669006,210.773804 
	C451.414490,225.268845 448.152283,240.906906 446.786682,256.789124 
	C444.964172,277.985382 435.701080,295.395050 422.285980,311.210327 
	C405.610016,330.869995 386.838470,348.252472 365.002838,361.914642 
	C355.813995,367.663910 345.606689,372.254120 335.294800,375.645386 
	C311.421326,383.496613 291.801941,396.292999 277.576538,417.552246 
	C264.058899,437.753723 245.478561,452.956726 225.185181,466.070892 
	C203.809143,479.884674 186.774261,497.710449 174.774445,520.244202 
	C160.300980,547.423096 140.326218,570.671326 121.503441,594.743347 
	C105.325104,615.433411 88.821640,635.915222 76.252022,659.121826 
	C67.012833,676.179626 60.600475,694.144104 59.646935,714.049194 
	C67.356087,716.905090 74.321426,720.020569 77.537491,727.859253 
	C80.425705,734.898865 80.379829,742.163269 78.973236,749.386292 
	C76.757080,760.766785 73.289650,771.966614 71.913818,783.430359 
	C70.498093,795.226562 69.766678,807.356201 70.848595,819.146057 
	C72.819077,840.618774 71.705956,861.533875 65.074295,882.096313 
	C52.677845,920.533264 36.840504,957.324829 14.206235,991.016052 
	C9.833261,997.525269 7.023819,1005.084900 2.746566,1012.079956 
	C2.000000,675.467468 2.000000,338.934906 2.000000,2.000000 
	C396.708374,2.000000 791.416870,2.000000 1187.062744,2.000000 
z"/>
<path fill="none" opacity="1.000000" stroke="none" 
	d="
M1.999995,1022.500000 
	C2.319454,1022.788635 2.638918,1023.577209 2.479191,1024.182861 
	C2.000000,1024.000000 2.000000,1023.000000 1.999995,1022.500000 
z"/>
<path fill="#E97101" opacity="1.000000" stroke="none" 
	d="
M1361.927490,1744.577515 
	C1334.299927,1738.748657 1307.438110,1730.340698 1281.474731,1719.344482 
	C1262.540283,1711.325317 1243.110107,1707.365112 1222.555420,1707.203369 
	C1207.673828,1707.086182 1192.804688,1705.352539 1177.090454,1704.430298 
	C1128.607666,1700.356689 1082.154419,1708.612549 1036.066772,1718.921265 
	C1014.731628,1723.693481 994.004089,1731.141724 972.911499,1737.057373 
	C963.680054,1739.646484 954.324219,1742.441650 944.850098,1743.381348 
	C924.557007,1745.394287 908.146606,1735.790039 893.313110,1723.325195 
	C886.467285,1717.572632 880.541504,1710.736694 874.051086,1704.546509 
	C866.070496,1696.935425 864.416748,1687.976807 868.849792,1678.200928 
	C874.197876,1666.407471 880.059937,1654.843018 885.869690,1643.264893 
	C889.134705,1636.758057 892.743103,1630.423340 896.347656,1623.331299 
	C898.570618,1620.162964 901.146362,1617.941650 902.632263,1615.141968 
	C911.840698,1597.791748 920.739441,1580.277466 929.869019,1562.884888 
	C937.760437,1547.851196 945.455078,1532.696655 953.892212,1517.971069 
	C967.308655,1494.555054 986.269531,1476.553711 1010.112793,1463.993530 
	C1026.891846,1455.154663 1043.838989,1446.564819 1061.109741,1438.744385 
	C1089.959351,1425.681274 1116.060425,1409.083496 1137.615967,1385.472290 
	C1151.244995,1370.543335 1168.441895,1362.629150 1189.207275,1363.442627 
	C1198.367676,1363.801758 1206.054810,1366.882690 1212.415405,1373.411011 
	C1213.345581,1374.365845 1214.413574,1375.215210 1215.204468,1376.272827 
	C1226.187378,1390.959106 1240.615723,1392.544067 1257.234497,1388.237549 
	C1275.620483,1383.472900 1289.248535,1373.371216 1295.901489,1355.400635 
	C1302.599121,1337.309814 1309.051758,1319.088379 1314.605103,1300.621338 
	C1331.859253,1243.244629 1349.440063,1185.949707 1362.970215,1127.526855 
	C1374.787476,1076.500366 1383.237305,1024.935913 1386.163086,972.623169 
	C1388.041138,939.043640 1389.480713,905.389343 1389.507812,871.767212 
	C1389.560425,806.203064 1375.974365,742.830444 1356.017944,680.686646 
	C1353.889282,674.057800 1350.933105,667.664612 1347.994141,661.332275 
	C1342.077393,648.583618 1332.898560,638.712036 1320.873535,631.424927 
	C1316.610840,628.841736 1312.520874,625.973389 1308.739990,622.302612 
	C1357.408569,600.036438 1408.337402,590.151733 1460.709595,585.019836 
	C1462.074707,588.553162 1463.106689,590.956909 1463.940674,593.427490 
	C1468.199219,606.041077 1472.037720,618.809692 1476.691895,631.274475 
	C1507.809814,714.614990 1544.026367,795.815063 1580.466431,876.905884 
	C1606.398682,934.614075 1632.798096,992.113953 1659.262451,1049.580933 
	C1679.319092,1093.134033 1699.806763,1136.488770 1720.157959,1180.654785 
	C1726.114380,1194.138794 1732.015625,1206.899902 1737.916870,1219.661011 
	C1739.374146,1218.182251 1739.820435,1217.096802 1739.496948,1216.340576 
	C1733.938232,1203.344604 1728.284424,1190.389160 1722.480225,1176.710449 
	C1704.793945,1133.145264 1687.215942,1090.320190 1669.775513,1047.439209 
	C1618.330933,920.950684 1566.291138,794.689880 1520.120850,666.138977 
	C1511.580322,642.359619 1504.814575,617.937805 1497.466309,593.740662 
	C1496.393066,590.206055 1496.644043,586.269287 1496.255371,582.239380 
	C1503.871582,581.520081 1510.151855,580.391174 1516.426270,580.422180 
	C1554.401733,580.609619 1592.391235,580.502747 1630.346313,581.561462 
	C1682.644775,583.020264 1734.691528,588.206421 1786.417603,595.876526 
	C1838.081421,603.537537 1889.697144,611.673584 1941.099243,620.908325 
	C1993.812622,630.378723 2046.339600,640.961609 2098.771973,651.901978 
	C2178.889893,668.619019 2258.865234,686.018616 2338.881592,703.220459 
	C2364.247314,708.673584 2389.550049,714.420715 2414.881592,720.033325 
	C2434.357178,743.381470 2446.398438,769.789795 2446.216309,800.603760 
	C2446.129395,815.330627 2451.873535,825.822632 2463.933350,833.790222 
	C2471.640381,838.882141 2479.089355,844.499573 2485.986328,850.632324 
	C2490.091797,854.282837 2492.903564,859.388245 2495.821777,864.665405 
	C2493.181396,867.524841 2490.884766,869.436584 2488.870850,871.610291 
	C2464.280273,898.150452 2443.884033,927.643494 2430.184570,961.127014 
	C2418.638428,989.346985 2408.987305,1018.344299 2398.603516,1047.035889 
	C2396.835205,1051.922241 2395.601562,1057.002075 2393.393311,1062.296875 
	C2383.557373,1064.388916 2374.427979,1066.075195 2365.345215,1067.984375 
	C2344.249512,1072.419189 2322.565918,1074.815674 2303.440918,1086.126221 
	C2301.166504,1087.471191 2298.037598,1087.372070 2294.389404,1088.133423 
	C2295.680420,1072.424683 2303.145264,1059.315063 2303.811279,1043.583130 
	C2299.242432,1044.356934 2296.018311,1044.672852 2292.915527,1045.463989 
	C2260.192627,1053.806763 2229.156738,1066.410767 2199.276855,1082.100830 
	C2174.133789,1095.303345 2150.410156,1110.550293 2128.198486,1128.266357 
	C2120.934570,1134.060181 2111.996338,1136.855835 2101.753662,1139.723511 
	C2102.523193,1128.844727 2103.213867,1119.083862 2103.971924,1108.370483 
	C2101.287354,1109.158447 2099.637451,1109.345825 2098.287354,1110.082642 
	C2070.683594,1125.147949 2045.737671,1143.862549 2022.232178,1164.701538 
	C1996.138184,1187.835449 1977.391602,1217.339478 1953.724243,1242.557739 
	C1948.190674,1248.453979 1943.156860,1254.818970 1937.893188,1260.968384 
	C1937.165405,1260.706421 1936.437744,1260.444458 1935.709961,1260.182373 
	C1935.709961,1251.116577 1935.709961,1242.050781 1935.709961,1232.984985 
	C1934.996460,1232.644775 1934.283081,1232.304565 1933.569580,1231.964355 
	C1928.386475,1236.353271 1922.868286,1240.405762 1918.072388,1245.183105 
	C1874.387451,1288.698975 1830.831055,1332.343750 1787.226074,1375.939697 
	C1784.718018,1378.447388 1782.115356,1380.860352 1778.858521,1383.987915 
	C1777.515381,1376.518799 1782.828003,1371.036499 1780.766235,1364.053711 
	C1778.948853,1365.200806 1777.711670,1365.705200 1776.838257,1366.574829 
	C1764.703613,1378.656860 1753.895386,1391.631470 1748.869141,1408.473511 
	C1745.356079,1420.244019 1739.031372,1430.367920 1729.926514,1438.520020 
	C1707.519775,1458.581909 1681.246704,1471.896851 1653.320312,1482.539429 
	C1609.043823,1499.412720 1571.911865,1526.115601 1543.702393,1564.555664 
	C1527.647949,1586.432129 1509.320435,1606.168091 1487.806519,1622.689209 
	C1457.192627,1646.198364 1426.377808,1669.456299 1395.298340,1692.345337 
	C1377.299194,1705.600952 1365.127441,1722.101318 1361.927490,1744.577515 
M1608.353394,1371.871338 
	C1608.379395,1372.339966 1608.405396,1372.808594 1608.431274,1373.277222 
	C1609.100708,1372.993896 1609.770264,1372.710693 1611.277222,1372.061035 
	C1611.831177,1371.744995 1612.219604,1371.288208 1613.534790,1370.261597 
	C1614.636597,1369.184570 1615.738403,1368.107544 1617.836914,1366.552490 
	C1618.659668,1365.819092 1619.482422,1365.085693 1621.598633,1363.928467 
	C1624.133301,1361.941040 1627.531860,1360.605835 1626.552246,1355.755005 
	C1624.060791,1358.143677 1621.569336,1360.532227 1618.103760,1363.420288 
	C1617.311890,1364.175171 1616.520020,1364.930054 1614.564209,1366.048096 
	C1613.443726,1367.194458 1612.323242,1368.340698 1610.401123,1369.882202 
	C1609.886597,1370.218262 1609.481567,1370.655640 1608.353394,1371.871338 
M1602.808472,1376.158569 
	C1602.808228,1376.609497 1602.807983,1377.060303 1602.807739,1377.511230 
	C1603.437500,1377.236572 1604.067383,1376.961914 1605.472412,1376.066528 
	C1605.377686,1375.549438 1605.282959,1375.032471 1605.187988,1374.515259 
	C1604.690308,1374.898315 1604.192627,1375.281372 1602.808472,1376.158569 
M1580.929321,1394.201538 
	C1580.568970,1394.744995 1580.208618,1395.288330 1578.862305,1396.174194 
	C1578.560181,1396.766602 1578.258057,1397.359009 1576.928345,1398.223755 
	C1576.626709,1398.824951 1576.325195,1399.426025 1574.819092,1399.982300 
	C1573.896729,1400.667480 1572.974243,1401.352539 1571.102905,1402.391357 
	C1570.749390,1402.947021 1570.395752,1403.502808 1569.397827,1404.243042 
	C1569.576782,1404.145142 1569.755737,1404.047363 1570.963013,1403.692627 
	C1571.291138,1403.107056 1571.619385,1402.521484 1573.164307,1402.003174 
	C1574.102783,1401.329956 1575.041382,1400.656860 1576.966553,1399.703491 
	C1577.325806,1399.148926 1577.685059,1398.594360 1579.057495,1397.832764 
	C1579.436157,1397.281250 1579.814941,1396.729858 1581.152344,1395.871338 
	C1581.533569,1395.338135 1581.914795,1394.804810 1582.999146,1393.954590 
	C1582.967896,1393.561401 1582.936646,1393.168335 1582.905518,1392.775146 
	C1582.559570,1393.131714 1582.213501,1393.488281 1580.929321,1394.201538 
M1596.270630,1381.639771 
	C1595.452148,1382.371582 1594.633789,1383.103271 1592.874146,1384.250977 
	C1592.602295,1384.849487 1592.330444,1385.447998 1590.873901,1386.361206 
	C1589.738770,1387.407227 1588.603638,1388.453247 1586.805542,1390.024780 
	C1586.882080,1390.468750 1586.958740,1390.912598 1587.035400,1391.356567 
	C1587.459839,1391.018433 1587.884155,1390.680176 1589.497681,1389.977905 
	C1590.312988,1388.627686 1591.128418,1387.277588 1593.022583,1385.993530 
	C1593.526489,1385.506836 1594.030396,1385.020264 1595.669800,1384.350342 
	C1596.539917,1383.650879 1597.409912,1382.951538 1599.109985,1381.793091 
	C1599.026611,1381.289062 1598.943115,1380.784912 1598.859741,1380.280884 
	C1598.362305,1380.640381 1597.864990,1381.000000 1596.270630,1381.639771 
M989.519348,1585.538086 
	C991.696777,1587.052612 993.743774,1588.814697 996.072693,1590.041748 
	C1011.433289,1598.135254 1029.843872,1591.750244 1037.182983,1575.885376 
	C1044.387817,1560.310791 1036.694458,1541.910034 1020.411560,1535.772461 
	C1004.130920,1529.635620 986.645081,1538.247192 981.419617,1554.984375 
	C977.912720,1566.216797 980.977844,1575.898193 989.519348,1585.538086 
M1687.712280,1310.695923 
	C1694.355103,1305.145874 1701.142090,1299.758179 1707.610229,1294.011719 
	C1720.548096,1282.517456 1733.372681,1270.893066 1746.093140,1259.158936 
	C1748.510010,1256.929688 1751.687622,1254.730591 1751.488403,1250.111328 
	C1740.561768,1257.097290 1632.850708,1350.536133 1630.660522,1355.568115 
	C1650.208374,1342.075439 1667.908569,1326.187134 1687.712280,1310.695923 
M1741.636963,1223.380005 
	C1741.221558,1223.381836 1740.806274,1223.383545 1740.390869,1223.385376 
	C1740.404053,1223.681396 1740.368042,1224.218994 1740.438599,1224.233398 
	C1740.840454,1224.315308 1741.267822,1224.272461 1741.636963,1223.380005 
z"/>
<path fill="#FA9D57" opacity="1.000000" stroke="none" 
	d="
M1361.830078,1745.458618 
	C1365.127441,1722.101318 1377.299194,1705.600952 1395.298340,1692.345337 
	C1426.377808,1669.456299 1457.192627,1646.198364 1487.806519,1622.689209 
	C1509.320435,1606.168091 1527.647949,1586.432129 1543.702393,1564.555664 
	C1571.911865,1526.115601 1609.043823,1499.412720 1653.320312,1482.539429 
	C1681.246704,1471.896851 1707.519775,1458.581909 1729.926514,1438.520020 
	C1739.031372,1430.367920 1745.356079,1420.244019 1748.869141,1408.473511 
	C1753.895386,1391.631470 1764.703613,1378.656860 1776.838257,1366.574829 
	C1777.711670,1365.705200 1778.948853,1365.200806 1780.766235,1364.053711 
	C1782.828003,1371.036499 1777.515381,1376.518799 1778.858521,1383.987915 
	C1782.115356,1380.860352 1784.718018,1378.447388 1787.226074,1375.939697 
	C1830.831055,1332.343750 1874.387451,1288.698975 1918.072388,1245.183105 
	C1922.868286,1240.405762 1928.386475,1236.353271 1933.569580,1231.964355 
	C1934.283081,1232.304565 1934.996460,1232.644775 1935.709961,1232.984985 
	C1935.709961,1242.050781 1935.709961,1251.116577 1935.709961,1260.182373 
	C1936.437744,1260.444458 1937.165405,1260.706421 1937.893188,1260.968384 
	C1943.156860,1254.818970 1948.190674,1248.453979 1953.724243,1242.557739 
	C1977.391602,1217.339478 1996.138184,1187.835449 2022.232178,1164.701538 
	C2045.737671,1143.862549 2070.683594,1125.147949 2098.287354,1110.082642 
	C2099.637451,1109.345825 2101.287354,1109.158447 2103.971924,1108.370483 
	C2103.213867,1119.083862 2102.523193,1128.844727 2101.753662,1139.723511 
	C2111.996338,1136.855835 2120.934570,1134.060181 2128.198486,1128.266357 
	C2150.410156,1110.550293 2174.133789,1095.303345 2199.276855,1082.100830 
	C2229.156738,1066.410767 2260.192627,1053.806763 2292.915527,1045.463989 
	C2296.018311,1044.672852 2299.242432,1044.356934 2303.811279,1043.583130 
	C2303.145264,1059.315063 2295.680420,1072.424683 2294.389404,1088.133423 
	C2298.037598,1087.372070 2301.166504,1087.471191 2303.440918,1086.126221 
	C2322.565918,1074.815674 2344.249512,1072.419189 2365.345215,1067.984375 
	C2374.427979,1066.075195 2383.557373,1064.388916 2394.251953,1062.323730 
	C2397.827393,1061.955688 2399.840576,1062.034180 2401.801025,1061.749512 
	C2434.245117,1057.037598 2466.652344,1052.061646 2499.129395,1047.591431 
	C2534.232910,1042.760132 2569.406006,1038.436646 2604.534912,1033.786011 
	C2612.047119,1032.791382 2619.499268,1031.343384 2626.979248,1030.104248 
	C2646.403076,1043.998779 2667.263184,1055.927002 2684.833252,1072.359131 
	C2691.631836,1078.717163 2698.275635,1085.250366 2705.255615,1091.402222 
	C2716.454834,1101.272217 2727.796631,1110.984619 2739.221924,1120.593140 
	C2753.350098,1132.474854 2766.440918,1145.062012 2772.093750,1163.452148 
	C2774.231934,1170.408203 2776.667969,1177.082764 2774.108398,1184.654663 
	C2772.115234,1190.551392 2775.856445,1194.950073 2780.277588,1198.215332 
	C2790.265137,1205.591675 2801.885986,1207.449707 2813.457520,1204.451538 
	C2825.587158,1201.308350 2837.230957,1196.266235 2849.050537,1191.954102 
	C2862.745605,1186.957886 2876.360596,1181.739746 2890.084473,1176.825195 
	C2905.395020,1171.342651 2920.677490,1165.739502 2936.178467,1160.842041 
	C2951.534424,1155.990234 2967.219971,1155.570190 2983.385986,1156.948975 
	C2995.065186,1157.945068 3007.352783,1156.403320 3017.784424,1149.337158 
	C3024.112305,1145.050781 3030.203369,1140.407349 3036.612549,1136.250732 
	C3061.548584,1120.078247 3063.916260,1121.392578 3090.972900,1131.760742 
	C3097.421387,1134.231812 3108.061279,1146.619507 3111.561035,1154.576904 
	C3101.720947,1160.437622 3094.251221,1168.591675 3091.250000,1180.038452 
	C3089.908936,1185.153687 3088.713135,1190.389038 3088.266602,1195.639404 
	C3087.339355,1206.533569 3086.108154,1217.507080 3086.530029,1228.388672 
	C3087.373047,1250.130981 3080.923828,1269.719116 3070.293945,1288.072510 
	C3061.138428,1303.880249 3051.207275,1319.246338 3041.378906,1334.654663 
	C3030.882080,1351.111450 3023.864258,1368.863037 3020.397217,1388.055420 
	C3015.878906,1413.066895 3006.441650,1435.666504 2988.923584,1454.645142 
	C2972.007568,1472.971558 2963.074219,1495.386230 2956.527344,1519.244507 
	C2951.166992,1515.138428 2946.729248,1511.138672 2942.347900,1507.077881 
	C2918.184570,1484.682007 2890.697754,1467.438110 2860.588135,1454.244141 
	C2828.577637,1440.216919 2794.886230,1432.526489 2760.227539,1430.396851 
	C2733.381836,1428.747070 2706.465576,1429.693237 2679.610596,1433.606812 
	C2647.928955,1438.223877 2616.938721,1445.405151 2586.463379,1454.896118 
	C2530.364990,1472.366821 2477.096191,1496.678589 2424.596436,1522.774780 
	C2398.050781,1535.969849 2371.675781,1549.517822 2344.965576,1562.369507 
	C2330.605469,1569.278931 2315.934570,1575.668945 2299.455566,1576.040161 
	C2269.136230,1576.723267 2243.891357,1565.030762 2221.824219,1545.067261 
	C2198.027588,1523.539551 2179.809326,1497.806030 2165.796875,1469.201904 
	C2155.708984,1448.609009 2146.910889,1427.376465 2137.809326,1406.311890 
	C2133.848633,1397.145020 2129.509521,1393.840088 2119.612061,1393.918335 
	C2111.361084,1393.983521 2104.762939,1397.031006 2100.439941,1404.337646 
	C2095.018311,1413.500977 2089.641602,1422.692749 2084.095703,1431.780884 
	C2071.270020,1452.797974 2058.492432,1473.847168 2045.384644,1494.687988 
	C2041.766724,1500.440430 2038.071411,1506.667358 2029.571533,1506.587036 
	C2027.485107,1506.567139 2025.330688,1508.380371 2023.292236,1509.504272 
	C1997.628540,1523.654175 1972.508545,1538.641602 1949.136719,1556.440552 
	C1925.194458,1574.674072 1903.801392,1595.497681 1884.250732,1618.339111 
	C1864.053711,1641.935791 1847.864502,1668.368652 1830.214600,1693.765991 
	C1819.739136,1708.839722 1808.515625,1723.229126 1795.225342,1735.953857 
	C1789.450806,1741.482788 1783.574341,1746.960449 1778.323608,1752.968140 
	C1770.173096,1762.293945 1762.323120,1771.967773 1763.950317,1785.683350 
	C1741.270264,1790.775146 1718.658447,1796.201294 1695.889404,1800.858154 
	C1675.720337,1804.983276 1655.435425,1808.862183 1634.675049,1808.166016 
	C1629.062622,1807.977783 1623.457275,1806.513428 1617.877075,1806.667480 
	C1608.293335,1806.932129 1598.704956,1807.759644 1589.166748,1808.796143 
	C1568.373901,1811.055664 1547.611084,1813.593262 1526.836426,1816.020508 
	C1506.390381,1818.409546 1485.953979,1820.884033 1465.495361,1823.159790 
	C1454.938599,1824.334106 1444.362305,1825.589844 1433.761475,1826.063232 
	C1395.749512,1827.760376 1360.150879,1794.565918 1361.581421,1754.325562 
	C1361.676025,1751.665283 1361.684326,1749.001709 1361.830078,1745.458618 
M1588.689209,1597.785400 
	C1587.359497,1597.784302 1586.027832,1597.735352 1584.700317,1597.789185 
	C1567.668091,1598.479736 1557.285645,1610.189453 1557.825073,1628.082397 
	C1558.293945,1643.634888 1571.642090,1656.181152 1587.291870,1655.779419 
	C1601.346069,1655.418457 1615.008789,1641.767822 1615.833496,1627.262939 
	C1616.643433,1613.018188 1605.306030,1599.892334 1588.689209,1597.785400 
z"/>
<path fill="#FFCDAA" opacity="1.000000" stroke="none" 
	d="
M1764.041748,1786.414185 
	C1762.323120,1771.967773 1770.173096,1762.293945 1778.323608,1752.968140 
	C1783.574341,1746.960449 1789.450806,1741.482788 1795.225342,1735.953857 
	C1808.515625,1723.229126 1819.739136,1708.839722 1830.214600,1693.765991 
	C1847.864502,1668.368652 1864.053711,1641.935791 1884.250732,1618.339111 
	C1903.801392,1595.497681 1925.194458,1574.674072 1949.136719,1556.440552 
	C1972.508545,1538.641602 1997.628540,1523.654175 2023.292236,1509.504272 
	C2025.330688,1508.380371 2027.485107,1506.567139 2029.571533,1506.587036 
	C2038.071411,1506.667358 2041.766724,1500.440430 2045.384644,1494.687988 
	C2058.492432,1473.847168 2071.270020,1452.797974 2084.095703,1431.780884 
	C2089.641602,1422.692749 2095.018311,1413.500977 2100.439941,1404.337646 
	C2104.762939,1397.031006 2111.361084,1393.983521 2119.612061,1393.918335 
	C2129.509521,1393.840088 2133.848633,1397.145020 2137.809326,1406.311890 
	C2146.910889,1427.376465 2155.708984,1448.609009 2165.796875,1469.201904 
	C2179.809326,1497.806030 2198.027588,1523.539551 2221.824219,1545.067261 
	C2243.891357,1565.030762 2269.136230,1576.723267 2299.455566,1576.040161 
	C2315.934570,1575.668945 2330.605469,1569.278931 2344.965576,1562.369507 
	C2371.675781,1549.517822 2398.050781,1535.969849 2424.596436,1522.774780 
	C2477.096191,1496.678589 2530.364990,1472.366821 2586.463379,1454.896118 
	C2616.938721,1445.405151 2647.928955,1438.223877 2679.610596,1433.606812 
	C2706.465576,1429.693237 2733.381836,1428.747070 2760.227539,1430.396851 
	C2794.886230,1432.526489 2828.577637,1440.216919 2860.588135,1454.244141 
	C2890.697754,1467.438110 2918.184570,1484.682007 2942.347900,1507.077881 
	C2946.729248,1511.138672 2951.166992,1515.138428 2955.968018,1519.743408 
	C2953.984131,1532.526001 2949.250244,1543.914795 2942.508301,1554.184692 
	C2938.791260,1559.846802 2933.790771,1565.519287 2928.015137,1568.811768 
	C2912.792969,1577.489502 2900.020264,1589.111328 2888.132812,1601.427002 
	C2867.395996,1622.910278 2848.087402,1645.763916 2827.758301,1667.651367 
	C2814.453613,1681.975952 2800.789795,1696.016113 2786.594238,1709.451904 
	C2768.337158,1726.732666 2752.037598,1745.420776 2740.666016,1767.967529 
	C2727.627441,1793.818726 2708.820557,1815.188477 2689.211426,1836.068481 
	C2670.345215,1856.157349 2651.143555,1876.015381 2633.540283,1897.181396 
	C2616.770508,1917.345093 2601.661133,1939.010498 2591.646240,1963.521851 
	C2587.926025,1972.626831 2585.442871,1982.448608 2583.901611,1992.181885 
	C2581.744141,2005.808960 2585.892822,2018.408447 2593.056641,2030.105225 
	C2597.734131,2037.742065 2601.969971,2045.647583 2606.560303,2053.339600 
	C2614.308594,2066.322754 2614.487061,2080.472656 2612.702881,2095.513916 
	C2604.125244,2094.784180 2596.082764,2093.408447 2588.035645,2092.061279 
	C2587.386719,2091.952881 2586.705322,2092.042969 2586.039062,2092.035156 
	C2555.131836,2091.665771 2555.121338,2091.638184 2521.246826,2104.568848 
	C2499.195312,2112.986328 2477.027588,2121.126465 2455.187256,2130.063477 
	C2429.344238,2140.638184 2403.769775,2151.872314 2378.130127,2162.939453 
	C2347.616943,2176.109863 2317.379150,2190.154785 2284.528809,2196.663574 
	C2265.704346,2200.393555 2246.681396,2203.187012 2227.683838,2205.961914 
	C2212.292236,2208.210205 2196.813232,2209.875244 2181.355957,2211.653076 
	C2173.456299,2212.561523 2165.529541,2213.290039 2157.597168,2213.849365 
	C2145.684082,2214.690186 2133.741699,2215.135254 2121.836914,2216.072021 
	C2108.963379,2217.084961 2096.139160,2218.784180 2083.256592,2219.614014 
	C2066.360596,2220.702637 2049.433350,2221.370605 2032.510376,2221.958008 
	C2020.384399,2222.379150 2007.555054,2210.521240 2014.457397,2195.225830 
	C2021.607666,2179.380859 2033.312256,2169.976318 2050.826416,2167.972900 
	C2087.866699,2163.735596 2121.407959,2151.491211 2147.359863,2123.479492 
	C2169.126953,2099.984619 2180.819824,2072.249512 2182.261230,2039.836548 
	C2183.618652,2009.307007 2176.750488,1981.106812 2162.197998,1954.590820 
	C2154.023193,1939.695679 2144.658447,1925.569580 2132.531494,1913.481812 
	C2126.160400,1907.131226 2119.163818,1901.277710 2113.587402,1894.291504 
	C2105.058105,1883.605713 2094.114014,1882.862183 2082.080078,1884.388794 
	C2076.829590,1885.054810 2071.556641,1885.789795 2066.278076,1885.943237 
	C2039.363770,1886.726074 2012.439941,1887.954956 1985.528076,1887.771851 
	C1968.003662,1887.652710 1950.431152,1885.934204 1932.995728,1883.928101 
	C1916.241211,1882.000244 1899.494263,1879.448730 1882.997803,1875.968628 
	C1858.760742,1870.855347 1835.811646,1861.977539 1814.960815,1848.369995 
	C1799.157104,1838.056396 1786.026001,1825.098511 1777.006836,1808.241699 
	C1774.680420,1803.893188 1771.480347,1800.020630 1768.859741,1795.818359 
	C1767.120483,1793.029297 1765.697510,1790.043091 1764.041748,1786.414185 
M2046.451050,1681.186035 
	C2051.358887,1674.510498 2054.076172,1666.624390 2053.358154,1658.767578 
	C2050.957520,1632.501465 2026.153320,1620.054199 2007.315308,1626.011108 
	C1993.677734,1630.323730 1982.956299,1643.448486 1981.885254,1657.332275 
	C1980.405640,1676.511353 1993.106323,1689.280396 2004.336182,1693.774902 
	C2015.416382,1698.209595 2032.753784,1697.588257 2046.451050,1681.186035 
z"/>
<path fill="#E97101" opacity="1.000000" stroke="none" 
	d="
M1930.677734,264.527496 
	C1948.239868,269.526093 1965.678345,275.030426 1983.403320,279.362762 
	C1997.540649,282.818268 2011.930664,285.745697 2026.381470,287.293091 
	C2047.589478,289.564026 2066.925293,281.984314 2085.735352,273.156921 
	C2089.648438,271.320435 2093.440918,269.227142 2097.354980,267.392761 
	C2111.250000,260.880707 2125.709473,257.845734 2140.900879,261.553894 
	C2168.302979,268.242615 2195.859375,274.438324 2222.937012,282.272156 
	C2246.585693,289.113922 2263.026123,304.907806 2272.417969,327.995575 
	C2280.059570,346.780029 2288.138916,365.383514 2290.825684,385.712494 
	C2291.563232,391.292633 2292.251953,396.927704 2292.291504,402.542328 
	C2292.399902,417.935059 2285.735596,429.294495 2271.552979,435.965881 
	C2265.535156,438.796661 2259.615723,441.841736 2253.701172,444.885773 
	C2250.792236,446.382904 2247.996338,448.099457 2244.382324,450.152252 
	C2247.917969,458.132477 2250.966553,465.729309 2254.584473,473.044708 
	C2265.037109,494.180817 2274.242920,516.146423 2290.327393,533.880554 
	C2296.976562,541.211487 2304.809082,547.497681 2312.322266,554.006592 
	C2317.844971,558.791321 2323.619141,563.304504 2329.462402,567.697632 
	C2348.854492,582.276794 2359.303467,601.395569 2358.291992,625.877991 
	C2357.623779,642.040344 2362.622803,655.769836 2372.941650,668.025757 
	C2385.346924,682.759705 2397.407959,697.783081 2408.942871,713.490356 
	C2406.614990,714.100830 2404.926270,714.057190 2403.315674,713.680664 
	C2359.260498,703.384094 2315.292480,692.698486 2271.145508,682.812256 
	C2205.894287,668.199951 2140.609619,653.709961 2075.167725,639.985107 
	C2007.123657,625.714478 1938.938721,612.092346 1870.692871,598.816162 
	C1831.512573,591.194214 1792.148315,584.461365 1752.757202,577.997192 
	C1718.619019,572.395081 1684.384155,567.292542 1650.081787,562.813416 
	C1626.663940,559.755493 1603.090698,557.645691 1579.523560,556.045776 
	C1558.605469,554.625610 1537.599609,554.498962 1516.633545,553.773743 
	C1515.471436,553.733521 1514.317993,553.442078 1512.312988,553.139832 
	C1513.840088,550.532654 1514.580688,548.672974 1515.819580,547.245789 
	C1527.818115,533.423462 1539.181396,518.954834 1552.097168,506.041962 
	C1587.109741,471.037262 1626.845947,441.789062 1667.792969,414.207184 
	C1747.228760,360.699493 1831.028320,314.796600 1916.677612,272.150818 
	C1921.431152,269.783997 1926.014893,267.076416 1930.677734,264.527496 
z"/>
<path fill="#FECAA5" opacity="1.000000" stroke="none" 
	d="
M1929.863281,264.300446 
	C1926.014893,267.076416 1921.431152,269.783997 1916.677612,272.150818 
	C1831.028320,314.796600 1747.228760,360.699493 1667.792969,414.207184 
	C1626.845947,441.789062 1587.109741,471.037262 1552.097168,506.041962 
	C1539.181396,518.954834 1527.818115,533.423462 1515.819580,547.245789 
	C1514.580688,548.672974 1513.840088,550.532654 1512.312988,553.139832 
	C1514.317993,553.442078 1515.471436,553.733521 1516.633545,553.773743 
	C1537.599609,554.498962 1558.605469,554.625610 1579.523560,556.045776 
	C1603.090698,557.645691 1626.663940,559.755493 1650.081787,562.813416 
	C1684.384155,567.292542 1718.619019,572.395081 1752.757202,577.997192 
	C1792.148315,584.461365 1831.512573,591.194214 1870.692871,598.816162 
	C1938.938721,612.092346 2007.123657,625.714478 2075.167725,639.985107 
	C2140.609619,653.709961 2205.894287,668.199951 2271.145508,682.812256 
	C2315.292480,692.698486 2359.260498,703.384094 2403.315674,713.680664 
	C2404.926270,714.057190 2406.614990,714.100830 2409.080078,714.152222 
	C2411.373047,715.607361 2412.852783,717.209900 2414.606934,719.422852 
	C2389.550049,714.420715 2364.247314,708.673584 2338.881592,703.220459 
	C2258.865234,686.018616 2178.889893,668.619019 2098.771973,651.901978 
	C2046.339600,640.961609 1993.812622,630.378723 1941.099243,620.908325 
	C1889.697144,611.673584 1838.081421,603.537537 1786.417603,595.876526 
	C1734.691528,588.206421 1682.644775,583.020264 1630.346313,581.561462 
	C1592.391235,580.502747 1554.401733,580.609619 1516.426270,580.422180 
	C1510.151855,580.391174 1503.871582,581.520081 1496.255371,582.239380 
	C1496.644043,586.269287 1496.393066,590.206055 1497.466309,593.740662 
	C1504.814575,617.937805 1511.580322,642.359619 1520.120850,666.138977 
	C1566.291138,794.689880 1618.330933,920.950684 1669.775513,1047.439209 
	C1687.215942,1090.320190 1704.793945,1133.145264 1722.133179,1177.211426 
	C1721.339233,1178.928467 1720.721069,1179.430176 1720.102783,1179.931885 
	C1699.806763,1136.488770 1679.319092,1093.134033 1659.262451,1049.580933 
	C1632.798096,992.113953 1606.398682,934.614075 1580.466431,876.905884 
	C1544.026367,795.815063 1507.809814,714.614990 1476.691895,631.274475 
	C1472.037720,618.809692 1468.199219,606.041077 1463.940674,593.427490 
	C1463.106689,590.956909 1462.074707,588.553162 1460.709595,585.019836 
	C1408.337402,590.151733 1357.408569,600.036438 1308.466919,621.668457 
	C1306.633789,620.995239 1305.461548,620.023560 1304.912231,618.644897 
	C1307.976440,617.309875 1310.546265,616.624512 1312.837036,615.411926 
	C1323.127808,609.964783 1333.204102,604.098389 1343.604370,598.873962 
	C1379.116943,581.034851 1415.965820,566.768005 1455.170654,559.506714 
	C1463.054565,558.046570 1467.698975,554.775146 1470.082397,547.297241 
	C1471.385742,543.207764 1473.558350,539.384583 1475.448486,535.494507 
	C1514.573486,454.973358 1553.717163,374.461273 1592.840088,293.939087 
	C1594.289795,290.955261 1595.567261,287.887848 1596.925049,284.859375 
	C1601.174683,287.588684 1605.424438,290.317963 1609.653320,294.229919 
	C1608.993286,296.573425 1608.291260,297.704437 1607.723877,298.899475 
	C1582.365601,352.318665 1556.869507,405.673279 1531.757812,459.208221 
	C1523.732666,476.317169 1516.729858,493.905609 1508.932617,511.618256 
	C1508.747314,512.500183 1508.888794,513.038574 1509.030273,513.576904 
	C1509.461792,513.166809 1509.893188,512.756714 1510.945068,512.089844 
	C1514.591064,509.225769 1517.683838,506.691833 1520.632324,503.999908 
	C1565.691895,462.861389 1613.601807,425.298218 1663.546387,390.311829 
	C1734.277344,340.764282 1808.630737,297.318573 1885.868896,258.753479 
	C1889.109497,257.135437 1892.145020,255.106613 1895.276123,253.269165 
	C1906.533691,256.870605 1917.791382,260.472015 1929.863281,264.300446 
z"/>
<path fill="#E97202" opacity="1.000000" stroke="none" 
	d="
M1894.936646,252.786346 
	C1892.145020,255.106613 1889.109497,257.135437 1885.868896,258.753479 
	C1808.630737,297.318573 1734.277344,340.764282 1663.546387,390.311829 
	C1613.601807,425.298218 1565.691895,462.861389 1520.632324,503.999908 
	C1517.683838,506.691833 1514.591064,509.225769 1510.680664,511.819885 
	C1509.796021,511.806610 1509.259277,511.274689 1509.259277,511.274658 
	C1516.729858,493.905609 1523.732666,476.317169 1531.757812,459.208221 
	C1556.869507,405.673279 1582.365601,352.318665 1607.723877,298.899475 
	C1608.291260,297.704437 1608.993286,296.573425 1610.051880,294.856354 
	C1618.790161,296.441711 1627.023682,299.066711 1635.457642,300.557892 
	C1641.250122,301.582031 1647.457275,301.905853 1653.239868,301.005676 
	C1665.904907,299.034058 1675.875122,287.791840 1677.595581,274.081024 
	C1678.377441,267.850403 1678.813965,261.392639 1678.096313,255.189529 
	C1674.932983,227.846100 1690.516357,211.191223 1709.834473,201.833359 
	C1731.182861,191.492035 1753.601929,189.649368 1776.621826,196.017639 
	C1780.841675,197.185028 1784.174438,198.862885 1784.397095,203.624435 
	C1784.777100,211.752975 1790.696533,217.734528 1792.490723,225.300125 
	C1793.775391,230.716675 1798.501221,229.914078 1802.223877,229.966064 
	C1811.519897,230.095871 1820.824707,229.815826 1830.122070,229.557617 
	C1840.829834,229.260193 1850.689453,231.036102 1860.929077,235.348679 
	C1872.627808,240.275818 1883.791260,245.816742 1894.936646,252.786346 
z"/>
<path fill="#E97203" opacity="1.000000" stroke="none" 
	d="
M1596.515869,284.469116 
	C1595.567261,287.887848 1594.289795,290.955261 1592.840088,293.939087 
	C1553.717163,374.461273 1514.573486,454.973358 1475.448486,535.494507 
	C1473.558350,539.384583 1471.385742,543.207764 1470.082397,547.297241 
	C1467.698975,554.775146 1463.054565,558.046570 1455.170654,559.506714 
	C1415.965820,566.768005 1379.116943,581.034851 1343.604370,598.873962 
	C1333.204102,604.098389 1323.127808,609.964783 1312.837036,615.411926 
	C1310.546265,616.624512 1307.976440,617.309875 1304.797607,618.071228 
	C1303.059692,611.325989 1305.846924,606.080383 1310.458618,601.924072 
	C1315.134155,597.710205 1320.048706,593.640991 1325.330200,590.240906 
	C1346.284790,576.750977 1362.431641,558.779907 1373.533569,536.728760 
	C1387.276855,509.431244 1400.632446,481.890564 1412.866333,453.891632 
	C1435.223145,402.725220 1456.687866,351.158142 1474.400879,298.150482 
	C1478.391357,286.208771 1481.711426,273.945374 1484.075439,261.588104 
	C1486.029175,251.375381 1492.709595,245.493073 1500.603149,239.293076 
	C1503.968018,240.220627 1506.698486,241.422867 1509.406982,242.673065 
	C1510.311157,243.090485 1511.831177,243.520401 1511.931152,244.130875 
	C1513.316040,252.593140 1523.228882,256.932190 1522.480835,266.542511 
	C1522.193481,270.234894 1520.533813,275.148956 1525.102295,277.403168 
	C1530.657104,280.143921 1536.437744,283.499481 1543.060425,280.997650 
	C1561.228027,274.134644 1578.801270,276.579529 1596.515869,284.469116 
z"/>
<path fill="#FEE7D5" opacity="1.000000" stroke="none" 
	d="
M2626.530762,1029.531494 
	C2619.499268,1031.343384 2612.047119,1032.791382 2604.534912,1033.786011 
	C2569.406006,1038.436646 2534.232910,1042.760132 2499.129395,1047.591431 
	C2466.652344,1052.061646 2434.245117,1057.037598 2401.801025,1061.749512 
	C2399.840576,1062.034180 2397.827393,1061.955688 2394.979980,1062.019287 
	C2395.601562,1057.002075 2396.835205,1051.922241 2398.603516,1047.035889 
	C2408.987305,1018.344299 2418.638428,989.346985 2430.184570,961.127014 
	C2443.884033,927.643494 2464.280273,898.150452 2488.870850,871.610291 
	C2490.884766,869.436584 2493.181396,867.524841 2495.903076,865.208252 
	C2499.386719,871.950806 2502.762451,878.827942 2505.147217,886.033081 
	C2510.040283,900.815247 2519.301270,912.217590 2531.244141,921.738464 
	C2534.621094,924.430359 2537.913330,927.290100 2541.554932,929.578613 
	C2563.549805,943.400513 2579.305908,962.813416 2591.967529,985.100159 
	C2601.206543,1001.362610 2611.492676,1016.842957 2626.530762,1029.531494 
z"/>
<path fill="#FECBA7" opacity="1.000000" stroke="none" 
	d="
M988.973083,1585.037354 
	C980.977844,1575.898193 977.912720,1566.216797 981.419617,1554.984375 
	C986.645081,1538.247192 1004.130920,1529.635620 1020.411560,1535.772461 
	C1036.694458,1541.910034 1044.387817,1560.310791 1037.182983,1575.885376 
	C1029.843872,1591.750244 1011.433289,1598.135254 996.072693,1590.041748 
	C993.743774,1588.814697 991.696777,1587.052612 988.973083,1585.037354 
z"/>
<path fill="#FBC092" opacity="1.000000" stroke="none" 
	d="
M1687.177490,1311.167725 
	C1667.908569,1326.187134 1650.208374,1342.075439 1630.660522,1355.568115 
	C1632.850708,1350.536133 1740.561768,1257.097290 1751.488403,1250.111328 
	C1751.687622,1254.730591 1748.510010,1256.929688 1746.093140,1259.158936 
	C1733.372681,1270.893066 1720.548096,1282.517456 1707.610229,1294.011719 
	C1701.142090,1299.758179 1694.355103,1305.145874 1687.177490,1311.167725 
z"/>
<path fill="#F8B279" opacity="1.000000" stroke="none" 
	d="
M1720.157959,1180.654785 
	C1720.721069,1179.430176 1721.339233,1178.928467 1722.304443,1177.925781 
	C1728.284424,1190.389160 1733.938232,1203.344604 1739.496948,1216.340576 
	C1739.820435,1217.096802 1739.374146,1218.182251 1737.916870,1219.661011 
	C1732.015625,1206.899902 1726.114380,1194.138794 1720.157959,1180.654785 
z"/>
<path fill="#FBC092" opacity="1.000000" stroke="none" 
	d="
M1619.077881,1362.920654 
	C1621.569336,1360.532227 1624.060791,1358.143677 1626.552246,1355.755005 
	C1627.531860,1360.605835 1624.133301,1361.941040 1620.650146,1363.778076 
	C1619.701660,1363.627686 1619.077759,1362.920654 1619.077881,1362.920654 
z"/>
<path fill="#FBC092" opacity="1.000000" stroke="none" 
	d="
M1611.202759,1369.486938 
	C1612.323242,1368.340698 1613.443726,1367.194458 1615.423462,1366.204224 
	C1616.282715,1366.360352 1616.840332,1367.030518 1616.840332,1367.030518 
	C1615.738403,1368.107544 1614.636597,1369.184570 1612.710938,1370.142090 
	C1611.886963,1370.022705 1611.202759,1369.486938 1611.202759,1369.486938 
z"/>
<path fill="#F5A662" opacity="1.000000" stroke="none" 
	d="
M1587.468506,1389.499268 
	C1588.603638,1388.453247 1589.738770,1387.407227 1591.421387,1386.189575 
	C1591.968994,1386.017944 1591.943604,1385.927368 1591.943604,1385.927490 
	C1591.128418,1387.277588 1590.312988,1388.627686 1588.695557,1389.946777 
	C1587.893555,1389.915649 1587.468506,1389.499268 1587.468506,1389.499268 
z"/>
<path fill="#F8B279" opacity="1.000000" stroke="none" 
	d="
M1741.661743,1223.825928 
	C1741.267822,1224.272461 1740.840454,1224.315308 1740.438599,1224.233398 
	C1740.368042,1224.218994 1740.404053,1223.681396 1740.390869,1223.385376 
	C1740.806274,1223.383545 1741.221558,1223.381836 1741.661743,1223.825928 
z"/>
<path fill="#FBC092" opacity="1.000000" stroke="none" 
	d="
M1620.003418,1363.989990 
	C1619.482422,1365.085693 1618.659668,1365.819092 1617.338623,1366.791504 
	C1616.840332,1367.030518 1616.282715,1366.360352 1616.005371,1366.022705 
	C1616.520020,1364.930054 1617.311890,1364.175171 1618.590820,1363.170410 
	C1619.077759,1362.920654 1619.701660,1363.627686 1620.003418,1363.989990 
z"/>
<path fill="#F7B075" opacity="1.000000" stroke="none" 
	d="
M1598.279907,1382.252197 
	C1597.409912,1382.951538 1596.539917,1383.650879 1594.919678,1384.262939 
	C1594.169556,1384.175415 1593.815430,1383.835083 1593.815430,1383.834961 
	C1594.633789,1383.103271 1595.452148,1382.371582 1597.045776,1381.724243 
	C1597.820923,1381.808716 1598.279907,1382.252075 1598.279907,1382.252197 
z"/>
<path fill="#F5A662" opacity="1.000000" stroke="none" 
	d="
M1575.979858,1399.983765 
	C1575.041382,1400.656860 1574.102783,1401.329956 1572.579712,1401.997559 
	C1571.995117,1401.991943 1572.051880,1402.037720 1572.051880,1402.037720 
	C1572.974243,1401.352539 1573.896729,1400.667480 1575.410278,1399.991943 
	C1576.001465,1400.001587 1575.979858,1399.983765 1575.979858,1399.983765 
z"/>
<path fill="#F5A662" opacity="1.000000" stroke="none" 
	d="
M1569.934692,1403.949463 
	C1569.755737,1404.047363 1569.576782,1404.145142 1569.695801,1404.120728 
	C1569.993774,1403.998413 1569.934692,1403.949463 1569.934692,1403.949463 
z"/>
<path fill="#F5A662" opacity="1.000000" stroke="none" 
	d="
M1571.971436,1401.963867 
	C1571.619385,1402.521484 1571.291138,1403.107056 1570.448853,1403.821045 
	C1569.934692,1403.949463 1569.993774,1403.998413 1570.018066,1404.028442 
	C1570.395752,1403.502808 1570.749390,1402.947021 1571.577393,1402.214600 
	C1572.051880,1402.037720 1571.995117,1401.991943 1571.971436,1401.963867 
z"/>
<path fill="#F5A662" opacity="1.000000" stroke="none" 
	d="
M1578.044434,1398.039795 
	C1577.685059,1398.594360 1577.325806,1399.148926 1576.473145,1399.843628 
	C1575.979858,1399.983765 1576.001465,1400.001587 1576.012451,1400.014404 
	C1576.325195,1399.426025 1576.626709,1398.824951 1577.463379,1398.110962 
	C1577.998535,1397.998169 1578.044312,1398.039795 1578.044434,1398.039795 
z"/>
<path fill="#F5A662" opacity="1.000000" stroke="none" 
	d="
M1577.977295,1397.974854 
	C1578.258057,1397.359009 1578.560181,1396.766602 1579.440796,1396.093262 
	C1580.019287,1396.012207 1580.193726,1396.178467 1580.193726,1396.178467 
	C1579.814941,1396.729858 1579.436157,1397.281250 1578.550903,1397.936279 
	C1578.044312,1398.039795 1577.998535,1397.998169 1577.977295,1397.974854 
z"/>
<path fill="#F5A662" opacity="1.000000" stroke="none" 
	d="
M1582.296021,1394.271606 
	C1581.914795,1394.804810 1581.533569,1395.338135 1580.673096,1396.024902 
	C1580.193726,1396.178467 1580.019287,1396.012207 1579.933838,1395.921997 
	C1580.208618,1395.288330 1580.568970,1394.744995 1581.502930,1394.132446 
	C1582.076660,1394.063354 1582.296021,1394.271606 1582.296021,1394.271606 
z"/>
<path fill="#F5A662" opacity="1.000000" stroke="none" 
	d="
M1581.972168,1393.954102 
	C1582.213501,1393.488281 1582.559570,1393.131714 1582.905518,1392.775146 
	C1582.936646,1393.168335 1582.967896,1393.561401 1582.647583,1394.113037 
	C1582.296021,1394.271606 1582.076660,1394.063354 1581.972168,1393.954102 
z"/>
<path fill="#F5A662" opacity="1.000000" stroke="none" 
	d="
M1588.101074,1390.128906 
	C1587.884155,1390.680176 1587.459839,1391.018433 1587.035400,1391.356567 
	C1586.958740,1390.912598 1586.882080,1390.468750 1587.136963,1389.761963 
	C1587.468506,1389.499268 1587.893555,1389.915649 1588.101074,1390.128906 
z"/>
<path fill="#F7B075" opacity="1.000000" stroke="none" 
	d="
M1592.013916,1386.032227 
	C1592.330444,1385.447998 1592.602295,1384.849487 1593.344727,1384.042969 
	C1593.815430,1383.835083 1594.169556,1384.175415 1594.351929,1384.354492 
	C1594.030396,1385.020264 1593.526489,1385.506836 1592.483154,1385.960449 
	C1591.943604,1385.927368 1591.968994,1386.017944 1592.013916,1386.032227 
z"/>
<path fill="#F7B075" opacity="1.000000" stroke="none" 
	d="
M1597.594238,1381.584229 
	C1597.864990,1381.000000 1598.362305,1380.640381 1598.859619,1380.280884 
	C1598.943115,1380.784912 1599.026611,1381.289062 1598.694946,1382.022583 
	C1598.279907,1382.252075 1597.820923,1381.808716 1597.594238,1381.584229 
z"/>
<path fill="#F8B781" opacity="1.000000" stroke="none" 
	d="
M1604.697144,1376.687256 
	C1604.067383,1376.961914 1603.437500,1377.236572 1602.807739,1377.511230 
	C1602.807983,1377.060303 1602.808228,1376.609497 1603.500488,1376.168945 
	C1604.192627,1376.179321 1604.697144,1376.687256 1604.697144,1376.687256 
z"/>
<path fill="#F8B781" opacity="1.000000" stroke="none" 
	d="
M1603.943726,1375.921875 
	C1604.192627,1375.281372 1604.690308,1374.898315 1605.187988,1374.515381 
	C1605.282959,1375.032471 1605.377686,1375.549438 1605.084717,1376.376953 
	C1604.697144,1376.687256 1604.192627,1376.179321 1603.943726,1375.921875 
z"/>
<path fill="#F8B781" opacity="1.000000" stroke="none" 
	d="
M1610.439697,1372.427368 
	C1609.770264,1372.710693 1609.100708,1372.993896 1608.431274,1373.277222 
	C1608.405396,1372.808594 1608.379395,1372.339966 1609.084473,1371.844971 
	C1609.815430,1371.818604 1610.439697,1372.427368 1610.439697,1372.427368 
z"/>
<path fill="#F8B781" opacity="1.000000" stroke="none" 
	d="
M1612.164795,1370.356689 
	C1612.219604,1371.288208 1611.831177,1371.744995 1610.858398,1372.244141 
	C1610.439697,1372.427368 1609.815430,1371.818604 1609.500732,1371.506592 
	C1609.481567,1370.655640 1609.886597,1370.218262 1610.802002,1369.684570 
	C1611.202759,1369.486938 1611.886963,1370.022705 1612.164795,1370.356689 
z"/>
<path fill="#E97202" opacity="1.000000" stroke="none" 
	d="
M1589.553711,1597.812012 
	C1605.306030,1599.892334 1616.643433,1613.018188 1615.833496,1627.262939 
	C1615.008789,1641.767822 1601.346069,1655.418457 1587.291870,1655.779419 
	C1571.642090,1656.181152 1558.293945,1643.634888 1557.825073,1628.082397 
	C1557.285645,1610.189453 1567.668091,1598.479736 1584.700317,1597.789185 
	C1586.027832,1597.735352 1587.359497,1597.784302 1589.553711,1597.812012 
z"/>
<path fill="#FA9E58" opacity="1.000000" stroke="none" 
	d="
M2046.074463,1681.824707 
	C2032.753784,1697.588257 2015.416382,1698.209595 2004.336182,1693.774902 
	C1993.106323,1689.280396 1980.405640,1676.511353 1981.885254,1657.332275 
	C1982.956299,1643.448486 1993.677734,1630.323730 2007.315308,1626.011108 
	C2026.153320,1620.054199 2050.957520,1632.501465 2053.358154,1658.767578 
	C2054.076172,1666.624390 2051.358887,1674.510498 2046.074463,1681.824707 
z"/>
<path fill="#E97202" opacity="1.000000" stroke="none" 
	d="
M1510.060303,512.076599 
	C1509.893188,512.756714 1509.461792,513.166809 1509.030273,513.576904 
	C1508.888794,513.038574 1508.747314,512.500183 1508.932617,511.618286 
	C1509.259277,511.274689 1509.796021,511.806610 1510.060303,512.076599 
z"/>
</svg>